<svg xmlns="http://www.w3.org/2000/svg" width="61" height="60" viewBox="0 0 61 60" fill="none" style="
">
                                            <g clip-path="url(#clip0_66_147)">
                                            <path class="path-1" d="M40.8682 28.8271L28.4094 19.7705C27.9522 19.439 27.3452 19.3891 26.844 19.6467C26.3389 19.9022 26.0234 20.4214 26.0234 20.9824V39.0896C26.0234 39.6567 26.3389 40.1738 26.844 40.4294C27.0577 40.5372 27.2913 40.5911 27.5269 40.5911C27.8344 40.5911 28.1458 40.4932 28.4094 40.2996L40.8682 31.251C41.2615 30.9614 41.4911 30.5142 41.4911 30.039C41.4931 29.5558 41.2575 29.1106 40.8682 28.8271Z" fill="#36C4F7"></path>
                                            <path class="path-2" d="M30.9737 0.00390625C14.4018 0.00390625 0.972656 13.4331 0.972656 30.0049C0.972656 46.5707 14.4018 59.9959 30.9737 59.9959C47.5415 59.9959 60.9727 46.5687 60.9727 30.0049C60.9747 13.4331 47.5415 0.00390625 30.9737 0.00390625ZM30.9737 54.9904C17.1731 54.9904 5.98414 43.8074 5.98414 30.0049C5.98414 16.2084 17.1731 5.01139 30.9737 5.01139C44.7722 5.01139 55.9592 16.2064 55.9592 30.0049C55.9612 43.8074 44.7722 54.9904 30.9737 54.9904Z" fill="#36C4F7"></path>
                                            </g>
                                            <defs>
                                            <clipPath id="clip0_66_147">
                                            <rect width="60" height="60" fill="white" transform="translate(0.972656)"></rect>
                                            </clipPath>
                                            </defs>
                                            </svg>